<?xml version="1.0" standalone="no"?><!DOCTYPE svg PUBLIC "-//W3C//DTD SVG 1.1//EN" "http://www.w3.org/Graphics/SVG/1.1/DTD/svg11.dtd"><svg t="1551347989277" class="icon" style="" viewBox="0 0 1024 1024" version="1.1" xmlns="http://www.w3.org/2000/svg" p-id="1625" xmlns:xlink="http://www.w3.org/1999/xlink" width="200" height="200"><defs><style type="text/css"></style></defs><path d="M974.504214 206.910467l-115.683742 0c6.593162-17.189498 10.027377-35.610032 10.027377-54.178947 0-40.296775-15.765055-78.219479-44.375673-106.776885-28.572756-28.590152-66.546625-44.337811-106.933451-44.337811-80.541361 0-146.028864 61.450561-177.87313 98.055247-9.757225 11.144828-19.153222 23.181979-27.687596 35.441187-8.505721-12.192693-17.882276-24.224728-27.627221-35.420721-31.912827-36.627199-97.469915-98.075713-177.906899-98.075713-83.422991 0-151.295821 67.789942-151.295821 151.114696 0 18.545378 3.439332 36.972053 10.037611 54.178947l-115.675556 0c-26.755364 0-48.521087 21.74935-48.521087 48.476061l0 153.982c0 26.727735 21.765723 48.471968 48.521087 48.471968l2.854001 0 0 464.707904c0 55.04671 44.825928 99.834776 99.918687 99.834776l719.418027 0c55.094806 0 99.920734-44.788066 99.920734-99.834776l0-464.707904 2.883677 0c26.748201 0 48.50676-21.744233 48.50676-48.471968l0-153.982C1023.010975 228.659817 1001.252415 206.910467 974.504214 206.910467zM547.118334 275.535427l0 682.031535-70.205968 0 0-682.031535L547.118334 275.535427zM412.083871 457.780121l0 499.785817-259.802094 0c-19.354813 0-35.102473-15.709797-35.102473-35.018561l0-464.736557L412.083871 457.780121zM611.897709 271.499507l123.646088 0-0.163729 0.207731 222.818785 0 0 121.355929-346.301144 0L611.897709 271.499507zM717.538725 66.416666c47.701418 0 86.511329 38.721907 86.511329 86.314855 0 18.84009-5.976108 36.726459-17.278525 51.724035l-1.853208 2.454912-240.942561 0 4.701069-8.445346c10.664897-19.168572 24.445762-38.609343 39.879266-56.256258C645.892965 76.263941 693.978123 66.416666 717.538725 66.416666zM306.442856 66.416666c23.502273 0 71.5158 9.847276 129.018445 75.779917 15.517415 17.832134 29.29828 37.289278 39.856753 56.268538l4.696975 8.445346L239.084749 206.910467l-1.824555-2.439562c-11.325953-15.015995-17.312294-32.907481-17.312294-51.740408C219.947899 105.138572 258.749624 66.416666 306.442856 66.416666zM289.30657 271.499507l122.776278 0 0 121.154337-335.950402 0.375553-10.333346 0L65.7991 271.691889l223.666082 0L289.30657 271.499507zM871.699804 957.566962l-259.802094 0 0-499.726465 294.904567 0 0 464.707904C906.802276 941.857165 891.056664 957.566962 871.699804 957.566962z" p-id="1626"></path></svg>